<svg xmlns="http://www.w3.org/2000/svg" width="490" height="216" viewBox="0 0 490 216">
<style>text{font-family:SFMono-Regular,Consolas,Menlo,monospace;}.label{font-size:13px;fill:#8b949e;}.value{font-size:13px;fill:#c9d1d9;}.title{font-size:14px;fill:#c9d1d9;font-weight:600;}</style>
<rect x="0.5" y="0.5" width="489" height="215" rx="8" fill="#0d1117" stroke="#30363d"/>
<rect x="0.5" y="0.5" width="489" height="32" rx="8" fill="#161b22"/>
<rect x="0.5" y="24.5" width="489" height="8" fill="#161b22"/>
<circle cx="20" cy="16" r="6" fill="#ff5f56"/>
<circle cx="40" cy="16" r="6" fill="#ffbd2e"/>
<circle cx="60" cy="16" r="6" fill="#27c93f"/>
<text x="245" y="20" text-anchor="middle" class="title">avi@github</text>
<g opacity="0" transform="translate(-12,0)">
<animate attributeName="opacity" values="0;0;1;1;0" keyTimes="0;0.0377;0.1256;0.97;1" dur="3.98s" repeatCount="indefinite"/>
<animateTransform attributeName="transform" type="translate" values="-12,0;-12,0;0,0;0,0;-12,0" keyTimes="0;0.0377;0.1256;0.97;1" dur="3.98s" repeatCount="indefinite"/>
<rect x="12" y="42" width="4" height="16" rx="2" fill="#39d353"/>
<text x="24" y="56" class="label">Now</text>
<text x="130" y="56" class="value">Software Engineer</text>
</g>
<g opacity="0" transform="translate(-12,0)">
<animate attributeName="opacity" values="0;0;1;1;0" keyTimes="0;0.0678;0.1558;0.97;1" dur="3.98s" repeatCount="indefinite"/>
<animateTransform attributeName="transform" type="translate" values="-12,0;-12,0;0,0;0,0;-12,0" keyTimes="0;0.0678;0.1558;0.97;1" dur="3.98s" repeatCount="indefinite"/>
<rect x="12" y="76" width="4" height="16" rx="2" fill="#58a6ff"/>
<text x="24" y="90" class="label">Prev</text>
<text x="130" y="90" class="value">Full-stack + creative dev</text>
</g>
<g opacity="0" transform="translate(-12,0)">
<animate attributeName="opacity" values="0;0;1;1;0" keyTimes="0;0.0980;0.1859;0.97;1" dur="3.98s" repeatCount="indefinite"/>
<animateTransform attributeName="transform" type="translate" values="-12,0;-12,0;0,0;0,0;-12,0" keyTimes="0;0.0980;0.1859;0.97;1" dur="3.98s" repeatCount="indefinite"/>
<rect x="12" y="110" width="4" height="16" rx="2" fill="#e3b341"/>
<text x="24" y="124" class="label">Stack</text>
<text x="130" y="124" class="value">TypeScript, Python, React, Node</text>
</g>
<g opacity="0" transform="translate(-12,0)">
<animate attributeName="opacity" values="0;0;1;1;0" keyTimes="0;0.1281;0.2161;0.97;1" dur="3.98s" repeatCount="indefinite"/>
<animateTransform attributeName="transform" type="translate" values="-12,0;-12,0;0,0;0,0;-12,0" keyTimes="0;0.1281;0.2161;0.97;1" dur="3.98s" repeatCount="indefinite"/>
<rect x="12" y="144" width="4" height="16" rx="2" fill="#f778ba"/>
<text x="24" y="158" class="label">Highlights</text>
<text x="130" y="158" class="value">Building small tools that ship</text>
</g>
</svg>